<svg width="582" height="48" viewBox="0 0 582 48" fill="none" xmlns="http://www.w3.org/2000/svg">
<path d="M0.5 4C0.5 2.067 2.067 0.5 4 0.5H68C69.933 0.5 71.5 2.067 71.5 4V44C71.5 45.933 69.933 47.5 68 47.5H4C2.06701 47.5 0.5 45.933 0.5 44V4Z" fill="white" stroke="#DDDDDD"/>
<path fill-rule="evenodd" clip-rule="evenodd" d="M36 34.7316C33.5639 36.832 30.4038 38.0999 26.9508 38.0999C19.246 38.0999 13 31.7871 13 23.9999C13 16.2127 19.246 9.8999 26.9508 9.8999C30.4038 9.8999 33.5639 11.1678 36 13.2682C38.4361 11.1678 41.5961 9.8999 45.0491 9.8999C52.7539 9.8999 58.9999 16.2127 58.9999 23.9999C58.9999 31.7871 52.7539 38.0999 45.0491 38.0999C41.5961 38.0999 38.4361 36.832 36 34.7316Z" fill="#ED0006"/>
<path fill-rule="evenodd" clip-rule="evenodd" d="M36 34.7316C38.9996 32.1454 40.9017 28.2972 40.9017 23.9999C40.9017 19.7026 38.9996 15.8544 36 13.2682C38.4361 11.1678 41.5961 9.8999 45.0491 9.8999C52.754 9.8999 59 16.2127 59 23.9999C59 31.7871 52.754 38.0999 45.0491 38.0999C41.5961 38.0999 38.4361 36.832 36 34.7316Z" fill="#F9A000"/>
<path fill-rule="evenodd" clip-rule="evenodd" d="M36.0001 34.7312C38.9997 32.145 40.9016 28.2968 40.9016 23.9996C40.9016 19.7025 38.9997 15.8543 36.0001 13.2681C33.0006 15.8543 31.0986 19.7025 31.0986 23.9996C31.0986 28.2968 33.0006 32.145 36.0001 34.7312Z" fill="#FF5E00"/>
<path d="M102.5 4C102.5 2.067 104.067 0.5 106 0.5H170C171.933 0.5 173.5 2.067 173.5 4V44C173.5 45.933 171.933 47.5 170 47.5H106C104.067 47.5 102.5 45.933 102.5 44V4Z" fill="white" stroke="#DDDDDD"/>
<path fill-rule="evenodd" clip-rule="evenodd" d="M123.5 32.4656H118.827L115.323 19.1223C115.156 18.5085 114.803 17.9659 114.284 17.7102C112.987 17.0675 111.559 16.556 110 16.298V15.7843H117.528C118.567 15.7843 119.347 16.556 119.477 17.4522L121.295 27.0771L125.966 15.7843H130.509L123.5 32.4656ZM133.107 32.4656H128.693L132.328 15.7843H136.741L133.107 32.4656ZM142.451 20.4059C142.581 19.5074 143.36 18.9937 144.269 18.9937C145.698 18.8647 147.254 19.1227 148.553 19.7632L149.332 16.1716C148.034 15.6579 146.605 15.3999 145.308 15.3999C141.025 15.3999 137.908 17.7105 137.908 20.9173C137.908 23.3569 140.116 24.6379 141.674 25.4096C143.36 26.179 144.01 26.6928 143.88 27.4622C143.88 28.6164 142.581 29.1301 141.284 29.1301C139.726 29.1301 138.167 28.7454 136.741 28.1027L135.962 31.6965C137.52 32.337 139.206 32.5949 140.765 32.5949C145.568 32.7217 148.553 30.4133 148.553 26.9485C148.553 22.5853 142.451 22.3295 142.451 20.4059ZM164 32.4656L160.496 15.7843H156.732C155.952 15.7843 155.173 16.298 154.913 17.0675L148.424 32.4656H152.968L153.874 30.0282H159.457L159.976 32.4656H164ZM157.381 20.2768L158.678 26.5637H155.043L157.381 20.2768Z" fill="#172B85"/>
<rect x="204.5" y="0.5" width="71" height="47" rx="3.5" fill="white" stroke="#DDDDDD"/>
<path d="M249.788 17.0005H245.432C245.135 17.0005 244.881 17.2182 244.835 17.5139L243.073 28.7413C243.038 28.9628 243.209 29.1625 243.431 29.1625H245.666C245.874 29.1625 246.052 29.0102 246.084 28.8027L246.584 25.6202C246.63 25.3238 246.884 25.1062 247.182 25.1062H248.56C251.43 25.1062 253.085 23.7105 253.518 20.9448C253.714 19.7348 253.526 18.7841 252.962 18.1183C252.344 17.3872 251.246 17.0005 249.788 17.0005ZM250.291 21.101C250.053 22.6721 248.859 22.6721 247.704 22.6721H247.047L247.509 19.738C247.536 19.5607 247.688 19.4301 247.867 19.4301H248.168C248.954 19.4301 249.697 19.4301 250.08 19.8808C250.309 20.1497 250.378 20.5492 250.291 21.101Z" fill="#179BD7"/>
<path d="M262.808 21.0507H260.723C260.544 21.0507 260.392 21.1813 260.365 21.3586L260.273 21.9451L260.126 21.7325C259.675 21.0737 258.668 20.8535 257.663 20.8535C255.358 20.8535 253.39 22.6083 253.007 25.0699C252.808 26.2978 253.09 27.472 253.783 28.2908C254.42 29.0437 255.329 29.3574 256.411 29.3574C258.268 29.3574 259.298 28.157 259.298 28.157L259.205 28.7396C259.17 28.9624 259.34 29.1621 259.564 29.1621H261.442C261.74 29.1621 261.993 28.9445 262.039 28.6481L263.167 21.472C263.202 21.2511 263.031 21.0507 262.808 21.0507ZM259.9 25.1314C259.7 26.3292 258.753 27.1333 257.547 27.1333C256.942 27.1333 256.457 26.9381 256.146 26.568C255.838 26.2005 255.722 25.6775 255.819 25.0949C256.008 23.9073 256.969 23.077 258.156 23.077C258.749 23.077 259.23 23.2748 259.547 23.648C259.866 24.0251 259.993 24.5514 259.9 25.1314Z" fill="#179BD7"/>
<path d="M265.267 17.3086L263.479 28.7414C263.444 28.9629 263.615 29.1627 263.837 29.1627H265.634C265.933 29.1627 266.187 28.945 266.232 28.6486L267.995 17.4219C268.03 17.2004 267.86 17 267.637 17H265.625C265.447 17.0006 265.294 17.1312 265.267 17.3086Z" fill="#179BD7"/>
<path d="M218.72 17.0005H214.364C214.066 17.0005 213.813 17.2182 213.766 17.5139L212.005 28.7413C211.97 28.9628 212.14 29.1625 212.364 29.1625H214.443C214.741 29.1625 214.995 28.9449 215.041 28.6484L215.516 25.6202C215.562 25.3238 215.816 25.1062 216.114 25.1062H217.493C220.362 25.1062 222.018 23.7105 222.45 20.9448C222.645 19.7348 222.459 18.7841 221.895 18.1183C221.276 17.3872 220.178 17.0005 218.72 17.0005ZM219.222 21.101C218.984 22.6721 217.79 22.6721 216.635 22.6721H215.978L216.439 19.738C216.467 19.5607 216.62 19.4301 216.798 19.4301H217.099C217.886 19.4301 218.628 19.4301 219.011 19.8808C219.24 20.1497 219.31 20.5492 219.222 21.101Z" fill="#253B80"/>
<path d="M231.74 21.0507H229.655C229.477 21.0507 229.323 21.1813 229.296 21.3586L229.204 21.9451L229.058 21.7325C228.606 21.0737 227.599 20.8535 226.594 20.8535C224.289 20.8535 222.321 22.6083 221.937 25.0699C221.738 26.2978 222.021 27.472 222.714 28.2908C223.35 29.0437 224.26 29.3574 225.342 29.3574C227.199 29.3574 228.229 28.157 228.229 28.157L228.136 28.7396C228.101 28.9624 228.271 29.1621 228.494 29.1621H230.372C230.671 29.1621 230.923 28.9445 230.97 28.6481L232.098 21.472C232.133 21.2511 231.963 21.0507 231.74 21.0507ZM228.833 25.1314C228.632 26.3292 227.686 27.1333 226.48 27.1333C225.874 27.1333 225.39 26.9381 225.079 26.568C224.771 26.2005 224.654 25.6775 224.752 25.0949C224.94 23.9073 225.901 23.077 227.089 23.077C227.682 23.077 228.163 23.2748 228.48 23.648C228.798 24.0251 228.924 24.5514 228.833 25.1314Z" fill="#253B80"/>
<path d="M242.849 21.0503H240.753C240.553 21.0503 240.365 21.1502 240.252 21.3173L237.361 25.5977L236.135 21.4844C236.058 21.227 235.822 21.0503 235.555 21.0503H233.495C233.245 21.0503 233.071 21.2961 233.15 21.533L235.459 28.3435L233.289 31.4236C233.118 31.6662 233.29 31.9998 233.585 31.9998H235.678C235.877 31.9998 236.063 31.9025 236.176 31.7386L243.147 21.6233C243.314 21.3813 243.143 21.0503 242.849 21.0503Z" fill="#253B80"/>
<rect x="306.5" y="0.5" width="71" height="47" rx="3.5" fill="white" stroke="#DDDDDD"/>
<path fill-rule="evenodd" clip-rule="evenodd" d="M323.675 17.8592C324.612 17.9383 325.55 17.3842 326.136 16.6816C326.712 15.9593 327.093 14.9895 326.995 14C326.165 14.0396 325.14 14.5541 324.554 15.2765C324.016 15.8999 323.557 16.9092 323.675 17.8592ZM334.828 30.6043V15.1775H340.542C343.491 15.1775 345.552 17.2357 345.552 20.2439C345.552 23.2521 343.452 25.3301 340.464 25.3301H337.192V30.6043H334.828ZM326.986 18.0472C326.16 17.999 325.406 18.2989 324.797 18.5411C324.405 18.6969 324.074 18.8289 323.821 18.8289C323.538 18.8289 323.193 18.6899 322.805 18.5338L322.805 18.5338C322.296 18.3292 321.715 18.0953 321.106 18.1066C319.709 18.1263 318.41 18.9279 317.697 20.2044C316.232 22.7574 317.317 26.5374 318.733 28.6154C319.426 29.6445 320.256 30.7726 321.35 30.733C321.831 30.7146 322.178 30.5658 322.536 30.4117C322.948 30.2344 323.377 30.0502 324.046 30.0502C324.692 30.0502 325.101 30.2296 325.495 30.4018C325.869 30.5656 326.228 30.7229 326.761 30.7132C327.894 30.6934 328.607 29.6841 329.3 28.655C330.049 27.5505 330.378 26.4725 330.427 26.3089L330.427 26.3089L330.433 26.29C330.432 26.2888 330.423 26.2845 330.407 26.2769C330.156 26.1609 328.244 25.274 328.226 22.8959C328.208 20.8998 329.743 19.8884 329.984 19.7292C329.999 19.7195 330.009 19.713 330.013 19.7096C329.037 18.2451 327.513 18.0868 326.986 18.0472ZM349.869 30.7232C351.354 30.7232 352.731 29.9613 353.356 28.754H353.405V30.6045H355.593V22.9257C355.593 20.6992 353.835 19.2644 351.129 19.2644C348.619 19.2644 346.763 20.719 346.695 22.7179H348.824C349 21.7679 349.869 21.1445 351.061 21.1445C352.506 21.1445 353.317 21.8273 353.317 23.084V23.935L350.367 24.1131C347.623 24.2813 346.138 25.4193 346.138 27.3984C346.138 29.3972 347.672 30.7232 349.869 30.7232ZM350.504 28.8925C349.244 28.8925 348.443 28.279 348.443 27.3389C348.443 26.3692 349.214 25.8051 350.689 25.7161L353.316 25.5478V26.4186C353.316 27.8633 352.105 28.8925 350.504 28.8925ZM362.849 31.208C361.902 33.9095 360.818 34.8 358.513 34.8C358.337 34.8 357.751 34.7802 357.614 34.7407V32.8902C357.761 32.91 358.122 32.9298 358.308 32.9298C359.353 32.9298 359.939 32.4845 360.3 31.3268L360.515 30.644L356.511 19.4128H358.982L361.765 28.5264H361.814L364.598 19.4128H367L362.849 31.208ZM337.192 17.1962H339.917C341.968 17.1962 343.14 18.3045 343.14 20.2538C343.14 22.2032 341.968 23.3214 339.907 23.3214H337.192V17.1962Z" fill="black"/>
<rect x="408.5" y="0.5" width="71" height="47" rx="3.5" fill="white" stroke="#DDDDDD"/>
<path fill-rule="evenodd" clip-rule="evenodd" d="M442.06 30.5132V24.4679H445.179C446.456 24.4679 447.535 24.0395 448.414 23.1945L448.625 22.9803C450.231 21.231 450.126 18.5058 448.414 16.8874C447.558 16.0305 446.386 15.5664 445.179 15.5902H440.173V30.5132H442.06ZM442.061 22.6352V17.4228H445.226C445.906 17.4228 446.551 17.6846 447.032 18.1606C448.052 19.1603 448.075 20.8263 447.091 21.8616C446.61 22.3734 445.93 22.659 445.226 22.6352H442.061ZM457.429 21.1001C456.62 20.3504 455.518 19.9696 454.123 19.9696C452.33 19.9696 450.982 20.636 450.091 21.9569L451.755 23.0161C452.365 22.1116 453.197 21.6594 454.252 21.6594C454.921 21.6594 455.565 21.9093 456.069 22.3615C456.562 22.79 456.843 23.4088 456.843 24.0633V24.5036C456.116 24.099 455.202 23.8848 454.077 23.8848C452.764 23.8848 451.708 24.1942 450.923 24.8249C450.138 25.4556 449.739 26.2887 449.739 27.3478C449.716 28.3117 450.126 29.228 450.853 29.8469C451.591 30.5133 452.529 30.8465 453.631 30.8465C454.932 30.8465 455.964 30.2634 456.749 29.0971H456.831V30.5133H458.637V24.218C458.637 22.8971 458.238 21.8498 457.429 21.1001ZM452.307 28.633C451.92 28.3474 451.686 27.8832 451.686 27.3834C451.686 26.8241 451.943 26.36 452.448 25.9911C452.964 25.6222 453.608 25.4318 454.371 25.4318C455.426 25.4199 456.247 25.6579 456.833 26.1339C456.833 26.9431 456.516 27.6452 455.895 28.2403C455.332 28.8115 454.57 29.1328 453.773 29.1328C453.245 29.1447 452.729 28.9662 452.307 28.633ZM462.693 34.9998L469 20.3029H466.949L464.029 27.6335H463.994L461.005 20.3029H458.953L463.092 29.8588L460.747 34.9998H462.693Z" fill="#3C4043"/>
<path d="M435.545 23.1593C435.545 22.5762 435.498 21.9931 435.404 21.4219H427.444V24.7183H432.004C431.817 25.7774 431.207 26.7294 430.316 27.3244V29.4665H433.036C434.63 27.979 435.545 25.7774 435.545 23.1593Z" fill="#4285F4"/>
<path d="M427.444 31.5368C429.719 31.5368 431.641 30.7752 433.036 29.4662L430.316 27.3241C429.554 27.8477 428.581 28.1452 427.444 28.1452C425.24 28.1452 423.376 26.6339 422.708 24.6108H419.906V26.8243C421.336 29.7161 424.256 31.5368 427.444 31.5368Z" fill="#34A853"/>
<path d="M422.708 24.6111C422.356 23.5519 422.356 22.3976 422.708 21.3266V19.125H419.906C418.698 21.5408 418.698 24.3969 419.906 26.8126L422.708 24.6111Z" fill="#FBBC04"/>
<path d="M427.444 17.792C428.651 17.7682 429.812 18.2323 430.679 19.0773L433.094 16.6258C431.559 15.1739 429.542 14.3766 427.444 14.4004C424.255 14.4004 421.336 16.2331 419.906 19.1249L422.708 21.3383C423.376 19.3034 425.24 17.792 427.444 17.792Z" fill="#EA4335"/>
<rect x="510.5" y="0.5" width="71" height="47" rx="3.5" fill="white" stroke="#DDDDDD"/>
<path fill-rule="evenodd" clip-rule="evenodd" d="M548.152 16.1273L544.527 16.9059V13.9644L548.152 13.2002V16.1273ZM533.419 14.8727L529.894 15.6225L529.88 27.1723C529.88 29.3064 531.483 30.8781 533.621 30.8781C534.805 30.8781 535.672 30.6618 536.149 30.4022V27.4751C535.686 27.6626 533.404 28.3259 533.404 26.1918V21.073H536.149V18.0017H533.404L533.419 14.8727ZM524.882 20.8856C524.117 20.8856 523.654 21.1019 523.654 21.6642C523.654 22.2782 524.45 22.5483 525.437 22.8834C527.046 23.4296 529.163 24.1486 529.172 26.8119C529.172 29.3929 527.107 30.8781 524.102 30.8781C522.86 30.8781 521.502 30.633 520.159 30.0562V26.6244C521.372 27.2877 522.903 27.778 524.102 27.778C524.911 27.778 525.489 27.5617 525.489 26.8984C525.489 26.2183 524.627 25.9074 523.586 25.5321C522 24.9605 520 24.2395 520 21.8372C520 19.285 521.95 17.7566 524.882 17.7566C526.081 17.7566 527.266 17.944 528.464 18.4199V21.8084C527.367 21.2172 525.98 20.8856 524.882 20.8856ZM540.641 19.0689L540.41 18.0019H537.29V30.6187H540.901V22.0681C541.753 20.9578 543.198 21.1597 543.646 21.3183V18.0019C543.183 17.8289 541.493 17.5116 540.641 19.0689ZM544.526 18.0019H548.152V30.6187H544.526V18.0019ZM572 24.3606C572 20.6693 570.209 17.7566 566.786 17.7566C563.348 17.7566 561.268 20.6693 561.268 24.3318C561.268 28.6719 563.723 30.8637 567.248 30.8637C568.967 30.8637 570.267 30.4743 571.249 29.9264V27.0426C570.267 27.5328 569.14 27.8356 567.71 27.8356C566.309 27.8356 565.067 27.3454 564.908 25.6439H571.971C571.971 25.5644 571.976 25.3839 571.982 25.1759C571.99 24.8933 572 24.5599 572 24.3606ZM564.864 22.9908C564.864 21.3614 565.861 20.6837 566.771 20.6837C567.652 20.6837 568.591 21.3614 568.591 22.9908H564.864ZM552.861 18.8813C553.366 18.4199 554.276 17.7566 555.692 17.7566C558.22 17.7566 560.603 20.0348 560.617 24.2164C560.617 28.7873 558.263 30.8637 555.677 30.8637C554.406 30.8637 553.641 30.3302 553.121 29.9553L553.106 34.0359L549.495 34.8001V17.9873H552.673L552.861 18.8813ZM553.121 27.0139C553.468 27.3888 553.973 27.6916 554.825 27.6916C556.154 27.6916 557.05 26.2496 557.05 24.3175C557.05 22.4286 556.14 20.9578 554.825 20.9578C554.002 20.9578 553.482 21.2462 553.106 21.6643L553.121 27.0139Z" fill="#6461FC"/>
</svg>
