<svg width="45" height="30" viewBox="0 0 45 30" fill="none" xmlns="http://www.w3.org/2000/svg">
<rect x="0.822266" y="0.954224" width="43.5246" height="28.7824" rx="3.51005" fill="#F89C2E"/>
<path fill-rule="evenodd" clip-rule="evenodd" d="M20.4785 24.5585C25.1424 25.8339 29.8657 22.7214 31.0283 17.6072C32.191 12.4928 29.3532 7.31206 24.6895 6.03702C20.0269 4.76198 15.3037 7.8747 14.1416 12.9895C12.9784 18.1034 15.8165 23.2835 20.4785 24.5585ZM24.5071 11.5292C25.713 11.9847 26.5949 12.6676 26.4217 13.9378C26.2963 14.8677 25.8262 15.3179 25.2022 15.4757C26.059 15.965 26.4951 16.7152 26.0797 18.0159C25.5642 19.6314 24.3396 19.7677 22.7109 19.4297L22.3157 21.1669L21.3606 20.9058L21.7507 19.1919C21.5031 19.1245 21.2501 19.0529 20.9895 18.9754L20.5981 20.6973L19.6441 20.4363L20.0393 18.6958C19.9502 18.6708 19.8605 18.6451 19.7701 18.6193C19.6344 18.5805 19.4973 18.5413 19.3584 18.5031L18.1155 18.1633L18.5897 16.9643C18.5897 16.9643 19.2934 17.1696 19.2839 17.1544C19.5543 17.2278 19.6743 17.0345 19.7216 16.9056L20.3462 14.1595C20.3696 14.1657 20.3926 14.172 20.4147 14.1781C20.4257 14.1811 20.4365 14.1841 20.4471 14.1869C20.409 14.1702 20.3745 14.1595 20.3478 14.152L20.7934 12.1917C20.8051 11.9692 20.7352 11.6885 20.3483 11.5826C20.3633 11.5715 19.6547 11.3934 19.6547 11.3934L19.9088 10.2747L21.2259 10.6354L21.2248 10.6408C21.4229 10.6948 21.6269 10.7461 21.8347 10.798L22.2262 9.07783L23.1807 9.33887L22.7971 11.0253C23.0534 11.0894 23.3113 11.1542 23.5624 11.2228L23.9432 9.5474L24.8983 9.80843L24.5071 11.5292ZM21.4861 17.7679C22.2654 17.9937 23.9687 18.487 24.2394 17.2937C24.5169 16.0736 22.8651 15.6671 22.059 15.4687C21.969 15.4466 21.8895 15.427 21.8244 15.4092L21.2999 17.7149C21.3533 17.7295 21.416 17.7476 21.4861 17.7679ZM22.221 14.3987C22.8707 14.5889 24.288 15.0036 24.5349 13.919C24.787 12.8097 23.4095 12.4753 22.7368 12.3119C22.6611 12.2936 22.5943 12.2774 22.5398 12.2625L22.0643 14.3537C22.1092 14.366 22.1619 14.3814 22.221 14.3987Z" fill="white"/>
</svg>
