<svg width="21" height="21" viewBox="0 0 21 21" fill="none" xmlns="http://www.w3.org/2000/svg">
<path d="M10.7617 12.0628L14.8804 7.94408C14.9571 7.86461 15.0489 7.80122 15.1504 7.75762C15.252 7.71401 15.3611 7.69105 15.4716 7.69009C15.5821 7.68913 15.6917 7.71019 15.7939 7.75202C15.8962 7.79386 15.9891 7.85564 16.0672 7.93377C16.1453 8.01189 16.2071 8.10479 16.249 8.20705C16.2908 8.30931 16.3118 8.41887 16.3109 8.52935C16.3099 8.63984 16.287 8.74902 16.2434 8.85053C16.1998 8.95205 16.1364 9.04386 16.0569 9.12062L11.3499 13.8276C11.1939 13.9836 10.9823 14.0712 10.7617 14.0712C10.541 14.0712 10.3294 13.9836 10.1734 13.8276L5.46642 9.12062C5.38695 9.04386 5.32356 8.95205 5.27995 8.85053C5.23635 8.74902 5.21339 8.63984 5.21243 8.52935C5.21147 8.41887 5.23253 8.30931 5.27436 8.20705C5.3162 8.10479 5.37798 8.01189 5.45611 7.93377C5.53423 7.85564 5.62713 7.79386 5.72939 7.75202C5.83165 7.71019 5.94121 7.68913 6.05169 7.69009C6.16217 7.69105 6.27136 7.71401 6.37287 7.75762C6.47439 7.80122 6.5662 7.86461 6.64296 7.94408L10.7617 12.0628Z" fill="#7E5728"/>
</svg>
