<svg width="45" height="30" viewBox="0 0 45 30" fill="none" xmlns="http://www.w3.org/2000/svg">
<rect x="0.822266" y="0.321411" width="43.5246" height="28.7824" rx="3.51005" fill="#EFEFEF"/>
<path d="M21.7885 14.4642V18.1993H20.6953V8.96185H23.5377C24.23 8.96185 24.886 9.24299 25.3961 9.76511C25.9063 10.2471 26.1614 10.97 26.1614 11.7331C26.1614 12.4962 25.9063 13.179 25.3961 13.7011C24.886 14.2232 24.2665 14.5043 23.5377 14.5043L21.7885 14.4642ZM21.7885 10.0864V13.2994H23.6105C24.0114 13.2994 24.4122 13.1388 24.6673 12.8175C25.2504 12.215 25.2504 11.211 24.7038 10.6085L24.6673 10.5684C24.3758 10.2471 24.0114 10.0463 23.6105 10.0864H21.7885Z" fill="#5F6368"/>
<path d="M28.6755 11.6928C29.4772 11.6928 30.0967 11.9338 30.5704 12.4157C31.0442 12.8977 31.2628 13.5403 31.2628 14.3436V18.1992H30.2425V17.3156H30.206C29.7687 18.0385 29.1493 18.4 28.4204 18.4C27.801 18.4 27.2543 18.1992 26.8171 17.7976C26.4162 17.3959 26.1611 16.8337 26.1611 16.2312C26.1611 15.5886 26.3798 15.0665 26.8171 14.6649C27.2543 14.2632 27.8738 14.1026 28.6026 14.1026C29.2586 14.1026 29.7687 14.2231 30.1696 14.5042V14.2231C30.1696 13.8214 30.0238 13.4198 29.7323 13.1788C29.4408 12.8977 29.0764 12.737 28.6755 12.737C28.056 12.737 27.5823 13.0182 27.2543 13.5805L26.3069 12.9379C26.8899 12.0944 27.6552 11.6928 28.6755 11.6928ZM27.2908 16.2714C27.2908 16.5927 27.4365 16.8738 27.6552 17.0345C27.9103 17.2353 28.2018 17.3558 28.4933 17.3558C28.9306 17.3558 29.3679 17.155 29.6959 16.7935C30.0603 16.432 30.2425 15.9902 30.2425 15.5083C29.9145 15.2271 29.4408 15.0665 28.8213 15.0665C28.384 15.0665 28.0196 15.187 27.7281 15.428C27.4365 15.6288 27.2908 15.9099 27.2908 16.2714Z" fill="#5F6368"/>
<path d="M37.1655 11.8937L33.5579 21.0107H32.4647L33.813 17.8378L31.4443 11.9338H32.6104L34.3231 16.4722H34.3596L36.0358 11.9338H37.1655V11.8937Z" fill="#5F6368"/>
<path d="M17.4512 13.6608C17.4512 13.2993 17.4147 12.9379 17.3783 12.5764H12.8232V14.6247H15.4105C15.3012 15.2673 14.9732 15.8698 14.4631 16.2312V17.5566H16.03C16.941 16.6329 17.4512 15.2673 17.4512 13.6608Z" fill="#4285F4"/>
<path d="M12.8234 18.8419C14.1353 18.8419 15.2285 18.3599 16.0302 17.5566L14.4632 16.2313C14.0259 16.5526 13.4793 16.7534 12.8234 16.7534C11.5844 16.7534 10.4912 15.8296 10.1268 14.5444H8.52344V15.91C9.36157 17.7173 11.0014 18.8419 12.8234 18.8419Z" fill="#34A853"/>
<path d="M10.1275 14.5443C9.9089 13.9017 9.9089 13.1788 10.1275 12.496V11.1305H8.52416C7.83179 12.6165 7.83179 14.3837 8.52416 15.9099L10.1275 14.5443Z" fill="#FBBC04"/>
<path d="M12.8241 10.3273C13.5164 10.3273 14.1724 10.6085 14.6825 11.1306L16.0673 9.60439C15.1927 8.72081 14.0266 8.19869 12.8605 8.23886C11.0385 8.23886 9.36224 9.36342 8.56055 11.1707L10.1639 12.5363C10.4919 11.2511 11.5851 10.3273 12.8241 10.3273Z" fill="#EA4335"/>
</svg>
