<svg width="21" height="21" viewBox="0 0 21 21" fill="none" xmlns="http://www.w3.org/2000/svg">
<g opacity="0.3">
<path d="M17.2989 10.9378C17.2989 10.0174 16.5504 9.26891 15.63 9.26891H14.7955V6.76558C14.7955 4.46501 12.9239 2.59335 10.6233 2.59335C8.32275 2.59335 6.45109 4.46501 6.45109 6.76558V9.26891H5.61664C4.69625 9.26891 3.94775 10.0174 3.94775 10.9378V17.6134C3.94775 18.5337 4.69625 19.2822 5.61664 19.2822H15.63C16.5504 19.2822 17.2989 18.5337 17.2989 17.6134V10.9378ZM8.11998 6.76558C8.11998 5.3854 9.24314 4.26224 10.6233 4.26224C12.0035 4.26224 13.1266 5.3854 13.1266 6.76558V9.26891H8.11998V6.76558Z" fill="#333333"/>
</g>
</svg>
