<svg width="45" height="30" viewBox="0 0 45 30" fill="none" xmlns="http://www.w3.org/2000/svg">
<rect x="0.822266" y="0.688721" width="43.5246" height="28.7824" rx="2.80804" fill="#B9E8FF"/>
<path d="M27.7362 6.92752C26.9307 5.91841 25.4746 5.48578 23.612 5.48578H18.206C17.8249 5.48578 17.501 5.79042 17.4414 6.20348L15.1904 21.895C15.1457 22.2044 15.3636 22.4847 15.649 22.4847H18.9864L19.8246 16.641L19.7987 16.824C19.8583 16.411 20.1798 16.1063 20.5604 16.1063H22.1463C25.262 16.1063 27.7015 14.7154 28.4142 10.6916C28.4353 10.5726 28.4536 10.4568 28.4695 10.3436C28.3795 10.2912 28.3795 10.2912 28.4695 10.3436C28.6817 8.85636 28.4681 7.84408 27.7362 6.92752Z" fill="#27346A"/>
<path d="M21.1017 9.80783C21.1907 9.76129 21.2898 9.73537 21.3938 9.73537H25.632C26.1339 9.73537 26.602 9.77134 27.0298 9.84697C27.1525 9.86865 27.2714 9.89351 27.3869 9.92207C27.5023 9.9501 27.6144 9.98183 27.7232 10.0167C27.7776 10.0342 27.831 10.0522 27.8834 10.0712C28.0937 10.1484 28.2895 10.2383 28.4695 10.3436C28.6817 8.85584 28.4681 7.84408 27.7362 6.92752C26.9302 5.91841 25.4746 5.48578 23.612 5.48578H18.2055C17.8249 5.48578 17.501 5.79042 17.4414 6.20348L15.1904 21.8944C15.1457 22.2044 15.3636 22.4841 15.6485 22.4841H18.9864L20.7254 10.3632C20.761 10.1146 20.9063 9.91096 21.1017 9.80783Z" fill="#27346A"/>
<path d="M28.4143 10.6916C27.7016 14.7149 25.2621 16.1064 22.1464 16.1064H20.56C20.1794 16.1064 19.8579 16.411 19.7988 16.8241L18.7561 24.0899C18.7171 24.3607 18.9076 24.6061 19.1569 24.6061H21.9703C22.3033 24.6061 22.5867 24.3395 22.6387 23.9783L22.6661 23.8207L23.1964 20.1269L23.2305 19.9228C23.2825 19.5616 23.5659 19.295 23.8989 19.295H24.3199C27.0453 19.295 29.1793 18.078 29.803 14.5583C30.0633 13.0875 29.9285 11.8594 29.24 10.9968C29.0311 10.7355 28.7718 10.5197 28.4696 10.3436C28.4532 10.4573 28.4354 10.5726 28.4143 10.6916Z" fill="#2790C3"/>
<path d="M27.7234 10.0167C27.6146 9.98181 27.5025 9.95008 27.387 9.92205C27.2715 9.89402 27.1522 9.86916 27.03 9.84748C26.6017 9.77132 26.134 9.73535 25.6317 9.73535H21.3939C21.2895 9.73535 21.1904 9.76127 21.1019 9.80834C20.906 9.91147 20.7612 10.1146 20.7256 10.3637L19.8248 16.641L19.7988 16.824C19.858 16.4109 20.1794 16.1063 20.5601 16.1063H22.1465C25.2621 16.1063 27.7017 14.7153 28.4143 10.6916C28.4355 10.5726 28.4533 10.4573 28.4697 10.3436C28.2892 10.2389 28.0939 10.1484 27.8836 10.0717C27.8311 10.0527 27.7777 10.0342 27.7234 10.0167Z" fill="#1F264F"/>
</svg>
