<svg width="21" height="21" viewBox="0 0 21 21" fill="none" xmlns="http://www.w3.org/2000/svg">
<path d="M9.04949 14.7138C9.70509 14.7138 10.3543 14.5846 10.96 14.3337C11.5657 14.0828 12.116 13.7151 12.5796 13.2515C13.0432 12.7879 13.4109 12.2376 13.6618 11.6319C13.9127 11.0262 14.0419 10.377 14.0419 9.72139C14.0419 9.06578 13.9127 8.4166 13.6618 7.8109C13.4109 7.20519 13.0432 6.65484 12.5796 6.19125C12.116 5.72767 11.5657 5.35994 10.96 5.10905C10.3543 4.85816 9.70509 4.72902 9.04949 4.72902C7.72543 4.72902 6.4556 5.255 5.51935 6.19125C4.5831 7.12751 4.05712 8.39733 4.05712 9.72139C4.05712 11.0454 4.5831 12.3153 5.51935 13.2515C6.4556 14.1878 7.72543 14.7138 9.04949 14.7138V14.7138ZM14.3081 13.8035L17.2869 16.7823C17.3663 16.8591 17.4296 16.9509 17.4732 17.0525C17.5167 17.154 17.5396 17.2632 17.5405 17.3737C17.5413 17.4842 17.5202 17.5937 17.4783 17.696C17.4364 17.7982 17.3745 17.891 17.2964 17.9691C17.2182 18.0472 17.1252 18.1089 17.0229 18.1507C16.9207 18.1924 16.8111 18.2134 16.7006 18.2124C16.5901 18.2113 16.481 18.1883 16.3795 18.1446C16.278 18.1009 16.1862 18.0375 16.1095 17.958L13.1307 14.9792C11.7932 16.0175 10.1102 16.507 8.4244 16.3481C6.73861 16.1892 5.17674 15.3938 4.05675 14.1239C2.93675 12.8539 2.34281 11.2049 2.39585 9.51248C2.44888 7.82005 3.1449 6.21144 4.34222 5.01413C5.53954 3.81681 7.14814 3.12079 8.84057 3.06775C10.533 3.01472 12.182 3.60865 13.452 4.72865C14.7219 5.84865 15.5173 7.41052 15.6762 9.09631C15.8351 10.7821 15.3456 12.4651 14.3073 13.8027L14.3081 13.8035Z" fill="#7E5728"/>
</svg>
