<svg width="290" height="72" viewBox="0 0 290 72" fill="none" xmlns="http://www.w3.org/2000/svg">
<path d="M44.9375 45.7482L53.4922 43.5884L57.0664 54.5625L44.9375 45.7482ZM64.625 31.5637H49.5664L44.9375 17.4375L40.3086 31.5637H25.25L37.4375 40.3196L32.8086 54.4458L44.9961 45.6899L52.4961 40.3196L64.625 31.5637Z" fill="#219653"/>
<path d="M84.0356 19.5078V51.5H77.4658V19.5078H84.0356ZM93.8794 19.5078V24.6714H67.7759V19.5078H93.8794ZM102.031 32.9111V51.5H95.7031V27.7256H101.658L102.031 32.9111ZM109.194 27.5718L109.084 33.4385C108.777 33.3945 108.403 33.3579 107.964 33.3286C107.539 33.2847 107.151 33.2627 106.799 33.2627C105.906 33.2627 105.129 33.3799 104.47 33.6143C103.826 33.834 103.284 34.1636 102.844 34.603C102.419 35.0425 102.097 35.5771 101.877 36.207C101.672 36.8369 101.555 37.5547 101.526 38.3604L100.251 37.9648C100.251 36.4268 100.405 35.0132 100.713 33.7241C101.021 32.4204 101.467 31.2852 102.053 30.3184C102.654 29.3516 103.386 28.6045 104.25 28.0771C105.115 27.5498 106.104 27.2861 107.217 27.2861C107.568 27.2861 107.927 27.3154 108.293 27.374C108.66 27.418 108.96 27.4839 109.194 27.5718ZM126.245 45.8091V27.7256H132.573V51.5H126.619L126.245 45.8091ZM126.948 40.9312L128.816 40.8872C128.816 42.4692 128.633 43.9414 128.267 45.3037C127.9 46.6514 127.351 47.8232 126.619 48.8193C125.886 49.8008 124.963 50.5698 123.85 51.1265C122.737 51.6685 121.426 51.9395 119.917 51.9395C118.76 51.9395 117.69 51.7783 116.709 51.4561C115.742 51.1191 114.907 50.5991 114.204 49.896C113.516 49.1782 112.974 48.2627 112.578 47.1494C112.197 46.0215 112.007 44.6665 112.007 43.0845V27.7256H118.335V43.1284C118.335 43.8315 118.416 44.4248 118.577 44.9082C118.752 45.3916 118.994 45.7871 119.302 46.0947C119.609 46.4023 119.968 46.6221 120.378 46.7539C120.803 46.8857 121.272 46.9517 121.785 46.9517C123.088 46.9517 124.114 46.688 124.861 46.1606C125.623 45.6333 126.157 44.9155 126.465 44.0073C126.787 43.0845 126.948 42.0591 126.948 40.9312ZM150.261 44.9302C150.261 44.4761 150.129 44.0659 149.866 43.6997C149.602 43.3335 149.111 42.9966 148.394 42.689C147.69 42.3667 146.672 42.0737 145.339 41.8101C144.138 41.5464 143.018 41.2168 141.978 40.8213C140.952 40.4111 140.059 39.9204 139.297 39.3491C138.55 38.7778 137.964 38.104 137.539 37.3276C137.114 36.5366 136.902 35.6357 136.902 34.625C136.902 33.6289 137.114 32.6914 137.539 31.8125C137.979 30.9336 138.601 30.1572 139.407 29.4834C140.227 28.7949 141.223 28.2603 142.395 27.8794C143.582 27.4839 144.915 27.2861 146.394 27.2861C148.459 27.2861 150.232 27.6157 151.711 28.2749C153.206 28.9341 154.348 29.8423 155.139 30.9995C155.945 32.1421 156.348 33.4458 156.348 34.9106H150.02C150.02 34.2954 149.888 33.7461 149.624 33.2627C149.375 32.7646 148.979 32.3765 148.438 32.0981C147.91 31.8052 147.222 31.6587 146.372 31.6587C145.669 31.6587 145.061 31.7832 144.548 32.0322C144.036 32.2666 143.64 32.5889 143.362 32.999C143.098 33.3945 142.966 33.834 142.966 34.3174C142.966 34.6836 143.04 35.0132 143.186 35.3062C143.347 35.5845 143.604 35.8408 143.955 36.0752C144.307 36.3096 144.761 36.5293 145.317 36.7344C145.889 36.9248 146.592 37.1006 147.427 37.2617C149.141 37.6133 150.671 38.0747 152.019 38.646C153.367 39.2026 154.436 39.9644 155.227 40.9312C156.018 41.8833 156.414 43.1357 156.414 44.6885C156.414 45.7432 156.179 46.71 155.71 47.5889C155.242 48.4678 154.568 49.2368 153.689 49.896C152.81 50.5405 151.755 51.0459 150.525 51.4121C149.309 51.7637 147.939 51.9395 146.416 51.9395C144.204 51.9395 142.329 51.5439 140.791 50.7529C139.268 49.9619 138.11 48.9585 137.319 47.7427C136.543 46.5122 136.155 45.2524 136.155 43.9634H142.153C142.183 44.8276 142.402 45.5234 142.812 46.0508C143.237 46.5781 143.772 46.959 144.417 47.1934C145.076 47.4277 145.786 47.5449 146.548 47.5449C147.368 47.5449 148.049 47.4351 148.591 47.2153C149.133 46.981 149.543 46.6733 149.822 46.2925C150.115 45.897 150.261 45.4429 150.261 44.9302ZM172.168 27.7256V32.208H158.325V27.7256H172.168ZM161.753 21.8589H168.081V44.3369C168.081 45.0254 168.169 45.5527 168.345 45.9189C168.535 46.2852 168.813 46.5415 169.18 46.688C169.546 46.8198 170.007 46.8857 170.564 46.8857C170.959 46.8857 171.311 46.8711 171.619 46.8418C171.941 46.7979 172.212 46.7539 172.432 46.71L172.454 51.3682C171.912 51.5439 171.326 51.6831 170.696 51.7856C170.066 51.8882 169.37 51.9395 168.608 51.9395C167.217 51.9395 166.001 51.7124 164.961 51.2583C163.936 50.7896 163.145 50.0425 162.588 49.0171C162.031 47.9917 161.753 46.644 161.753 44.9741V21.8589ZM182.1 32.2959V60.6406H175.771V27.7256H181.638L182.1 32.2959ZM197.151 39.3491V39.8105C197.151 41.5391 196.946 43.1431 196.536 44.6226C196.14 46.1021 195.554 47.3911 194.778 48.4897C194.001 49.5737 193.035 50.4233 191.877 51.0386C190.735 51.6392 189.417 51.9395 187.922 51.9395C186.472 51.9395 185.212 51.6465 184.143 51.0605C183.074 50.4746 182.173 49.6543 181.44 48.5996C180.723 47.5303 180.144 46.2925 179.705 44.8862C179.265 43.48 178.928 41.9712 178.694 40.3599V39.1514C178.928 37.4229 179.265 35.8408 179.705 34.4053C180.144 32.9551 180.723 31.7026 181.44 30.6479C182.173 29.5786 183.066 28.751 184.121 28.165C185.19 27.5791 186.443 27.2861 187.878 27.2861C189.387 27.2861 190.713 27.5718 191.855 28.1431C193.013 28.7144 193.979 29.5347 194.756 30.604C195.547 31.6733 196.14 32.9478 196.536 34.4272C196.946 35.9067 197.151 37.5474 197.151 39.3491ZM190.801 39.8105V39.3491C190.801 38.3384 190.713 37.4082 190.537 36.5586C190.376 35.6943 190.112 34.9399 189.746 34.2954C189.395 33.6509 188.926 33.1528 188.34 32.8013C187.769 32.4351 187.073 32.252 186.252 32.252C185.388 32.252 184.648 32.3911 184.033 32.6694C183.433 32.9478 182.942 33.3506 182.561 33.8779C182.18 34.4053 181.895 35.0352 181.704 35.7676C181.514 36.5 181.396 37.3276 181.353 38.2505V41.3047C181.426 42.3887 181.631 43.3628 181.968 44.2271C182.305 45.0767 182.825 45.7505 183.528 46.2485C184.231 46.7466 185.154 46.9956 186.296 46.9956C187.131 46.9956 187.834 46.8125 188.406 46.4463C188.977 46.0654 189.438 45.5454 189.79 44.8862C190.156 44.2271 190.413 43.4653 190.559 42.6011C190.72 41.7368 190.801 40.8066 190.801 39.8105ZM207.764 27.7256V51.5H201.414V27.7256H207.764ZM201.018 21.5293C201.018 20.6064 201.34 19.8447 201.985 19.2441C202.629 18.6436 203.494 18.3433 204.578 18.3433C205.647 18.3433 206.504 18.6436 207.148 19.2441C207.808 19.8447 208.137 20.6064 208.137 21.5293C208.137 22.4521 207.808 23.2139 207.148 23.8145C206.504 24.415 205.647 24.7153 204.578 24.7153C203.494 24.7153 202.629 24.415 201.985 23.8145C201.34 23.2139 201.018 22.4521 201.018 21.5293ZM219.673 17.75V51.5H213.323V17.75H219.673ZM223.892 39.8545V39.3931C223.892 37.6499 224.141 36.0459 224.639 34.5811C225.137 33.1016 225.862 31.8198 226.814 30.7358C227.766 29.6519 228.938 28.8096 230.33 28.209C231.721 27.5938 233.318 27.2861 235.12 27.2861C236.921 27.2861 238.525 27.5938 239.932 28.209C241.338 28.8096 242.517 29.6519 243.469 30.7358C244.436 31.8198 245.168 33.1016 245.667 34.5811C246.165 36.0459 246.414 37.6499 246.414 39.3931V39.8545C246.414 41.583 246.165 43.187 245.667 44.6665C245.168 46.1313 244.436 47.4131 243.469 48.5117C242.517 49.5957 241.345 50.438 239.954 51.0386C238.562 51.6392 236.965 51.9395 235.164 51.9395C233.362 51.9395 231.758 51.6392 230.352 51.0386C228.96 50.438 227.781 49.5957 226.814 48.5117C225.862 47.4131 225.137 46.1313 224.639 44.6665C224.141 43.187 223.892 41.583 223.892 39.8545ZM230.22 39.3931V39.8545C230.22 40.8506 230.308 41.7808 230.483 42.645C230.659 43.5093 230.938 44.271 231.318 44.9302C231.714 45.5747 232.227 46.0801 232.856 46.4463C233.486 46.8125 234.255 46.9956 235.164 46.9956C236.042 46.9956 236.797 46.8125 237.427 46.4463C238.057 46.0801 238.562 45.5747 238.943 44.9302C239.324 44.271 239.602 43.5093 239.778 42.645C239.968 41.7808 240.063 40.8506 240.063 39.8545V39.3931C240.063 38.4263 239.968 37.5181 239.778 36.6685C239.602 35.8042 239.316 35.0425 238.921 34.3833C238.54 33.7095 238.035 33.1821 237.405 32.8013C236.775 32.4204 236.013 32.23 235.12 32.23C234.226 32.23 233.464 32.4204 232.834 32.8013C232.219 33.1821 231.714 33.7095 231.318 34.3833C230.938 35.0425 230.659 35.8042 230.483 36.6685C230.308 37.5181 230.22 38.4263 230.22 39.3931ZM261.948 27.7256V32.208H248.105V27.7256H261.948ZM251.533 21.8589H257.861V44.3369C257.861 45.0254 257.949 45.5527 258.125 45.9189C258.315 46.2852 258.594 46.5415 258.96 46.688C259.326 46.8198 259.788 46.8857 260.344 46.8857C260.74 46.8857 261.091 46.8711 261.399 46.8418C261.721 46.7979 261.992 46.7539 262.212 46.71L262.234 51.3682C261.692 51.5439 261.106 51.6831 260.476 51.7856C259.846 51.8882 259.15 51.9395 258.389 51.9395C256.997 51.9395 255.781 51.7124 254.741 51.2583C253.716 50.7896 252.925 50.0425 252.368 49.0171C251.812 47.9917 251.533 46.644 251.533 44.9741V21.8589Z" fill="black"/>
</svg>
