<svg width="51" height="34" viewBox="0 0 51 34" fill="none" xmlns="http://www.w3.org/2000/svg">
<rect x="0.893555" y="0.829712" width="49.9562" height="33.0356" rx="4.02873" fill="#1434CB"/>
<path d="M31.7519 10.8983C28.9931 10.8983 26.5276 12.3167 26.5276 14.9373C26.5276 17.9427 30.9002 18.1503 30.9002 19.6602C30.9002 20.2959 30.1657 20.8649 28.9113 20.8649C27.131 20.8649 25.8004 20.0698 25.8004 20.0698L25.2311 22.7143C25.2311 22.7143 26.7639 23.386 28.7989 23.386C31.8152 23.386 34.1887 21.8979 34.1887 19.2324C34.1887 16.0567 29.7979 15.8553 29.7979 14.4539C29.7979 13.9559 30.4009 13.4103 31.6517 13.4103C33.063 13.4103 34.2145 13.9886 34.2145 13.9886L34.7717 11.4344C34.7717 11.4344 33.5188 10.8983 31.7519 10.8983ZM6.51114 11.091L6.44434 11.4766C6.44434 11.4766 7.60499 11.6873 8.65034 12.1076C9.99632 12.5895 10.0922 12.8701 10.3189 13.7416L12.7891 23.1872H16.1004L21.2016 11.091H17.898L14.6201 19.3153L13.2825 12.344C13.1598 11.5462 12.5385 11.091 11.7779 11.091H6.51114ZM22.5301 11.091L19.9385 23.1872H23.0888L25.6714 11.091H22.5301ZM40.1007 11.091C39.3411 11.091 38.9386 11.4945 38.6432 12.1994L34.0278 23.1872H37.3314L37.9706 21.3559H41.9955L42.3842 23.1872H45.2992L42.7561 11.091H40.1007ZM40.5304 14.359L41.5096 18.8981H38.8861L40.5304 14.359Z" fill="white"/>
</svg>
