<svg width="121" height="37" viewBox="0 0 121 37" fill="none" xmlns="http://www.w3.org/2000/svg">
<path fill-rule="evenodd" clip-rule="evenodd" d="M30.6066 36.2048H20.1757L12.3539 8.35336C11.9826 7.0722 11.1943 5.93958 10.0348 5.40576C7.14102 4.06425 3.95227 2.99661 0.473633 2.45815V1.38587H17.2769C19.596 1.38587 21.3353 2.99661 21.6252 4.8673L25.6836 24.9574L36.1093 1.38587H46.2503L30.6066 36.2048ZM52.048 36.2048H42.1969L50.3086 1.38587H60.1597L52.048 36.2048ZM72.9046 11.0319C73.1945 9.1566 74.9338 8.08432 76.963 8.08432C80.1517 7.81509 83.6253 8.35355 86.5242 9.69042L88.2635 2.19375C85.3646 1.12147 82.1759 0.583008 79.2821 0.583008C69.7209 0.583008 62.7637 5.40594 62.7637 12.0996C62.7637 17.1917 67.6917 19.8655 71.1704 21.4762C74.9338 23.0823 76.3832 24.1546 76.0933 25.7607C76.0933 28.1698 73.1945 29.2421 70.3007 29.2421C66.8221 29.2421 63.3434 28.4391 60.1598 27.0975L58.4204 34.5989C61.8991 35.9357 65.6625 36.4742 69.1412 36.4742C79.8619 36.7388 86.5242 31.9205 86.5242 24.6884C86.5242 15.581 72.9046 15.0472 72.9046 11.0319ZM121 36.2048L113.178 1.38587H104.777C103.038 1.38587 101.298 2.45815 100.718 4.06425L86.2343 36.2048H96.3752L98.3993 31.1172H110.859L112.019 36.2048H121ZM106.226 10.7624L109.12 23.885H101.008L106.226 10.7624Z" fill="#172B85"/>
</svg>
